<mxfile host="app.diagrams.net" modified="2023-05-09T23:40:51.908Z" agent="Mozilla/5.0 (Windows NT 10.0; Win64; x64) AppleWebKit/537.36 (KHTML, like Gecko) Chrome/112.0.0.0 Safari/537.36" version="21.2.9" etag="ZI7-NPa5gPq9_x-LyuR_" type="github">
  <diagram name="PÃ¡gina-1" id="P_RjrmrG8BQmSYQHVWyc">
    <mxGraphModel>
      <root>
        <mxCell id="0" />
        <mxCell id="1" parent="0" />
      </root>
    </mxGraphModel>
  </diagram>
</mxfile>
